<?xml version="1.0" encoding="UTF-8"?>
<svg width="20px" height="20px" viewBox="0 0 20 20" version="1.1" xmlns="http://www.w3.org/2000/svg" xmlns:xlink="http://www.w3.org/1999/xlink">
    <title>编组 7</title>
    <g id="tab" stroke="none" stroke-width="1" fill="none" fill-rule="evenodd">
        <g id="Tab" transform="translate(-144.000000, -251.000000)">
            <g id="编组-4" transform="translate(144.000000, 251.000000)">
                <rect id="矩形" x="0" y="0" width="20" height="20"></rect>
                <path d="M10,2.83333333 C13.9580424,2.83333333 17.1666667,6.04195763 17.1666667,10 C17.1666667,13.9580424 13.9580424,17.1666667 10,17.1666667 C6.04195763,17.1666667 2.83333333,13.9580424 2.83333333,10 C2.83333333,6.04195763 6.04195763,2.83333333 10,2.83333333 Z M10,3.83333333 C6.59424237,3.83333333 3.83333333,6.59424237 3.83333333,10 C3.83333333,13.4057576 6.59424237,16.1666667 10,16.1666667 C13.4057576,16.1666667 16.1666667,13.4057576 16.1666667,10 C16.1666667,6.59424237 13.4057576,3.83333333 10,3.83333333 Z M9.35355339,6.64644661 L12.3535534,9.64644661 C12.5271197,9.82001296 12.5464049,10.0894374 12.4114088,10.2843055 L12.3535534,10.3535534 L9.35355339,13.3535534 L8.64644661,12.6464466 L11.293,10 L8.64644661,7.35355339 L9.35355339,6.64644661 Z" id="形状结合" fill="#FFFFFF" fill-rule="nonzero" transform="translate(10.000000, 10.000000) rotate(-180.000000) translate(-10.000000, -10.000000) "></path>
            </g>
        </g>
    </g>
</svg>