<?xml version="1.0" encoding="UTF-8"?>
<svg width="16px" height="16px" viewBox="0 0 16 16" version="1.1" xmlns="http://www.w3.org/2000/svg" xmlns:xlink="http://www.w3.org/1999/xlink">
    <title>编组 6</title>
    <g id="反馈提示" stroke="none" stroke-width="1" fill="none" fill-rule="evenodd">
        <g transform="translate(-625.000000, -1850.000000)" id="信息提示">
            <g transform="translate(15.000000, 1838.000000)">
                <g id="编组-5" transform="translate(610.000000, 12.000000)">
                    <rect id="矩形" x="0" y="0" width="16" height="16"></rect>
                    <path d="M8,16 C9.10416667,16 10.1458333,15.7916667 11.125,15.375 C12.1041667,14.9583333 12.953125,14.390625 13.671875,13.671875 C14.390625,12.953125 14.9583333,12.109375 15.375,11.140625 C15.7916667,10.171875 16,9.125 16,8 C16,6.89583333 15.7916667,5.85416667 15.375,4.875 C14.9583333,3.89583333 14.390625,3.046875 13.671875,2.328125 C12.953125,1.609375 12.1041667,1.04166667 11.125,0.625 C10.1458333,0.208333333 9.10416667,0 8,0 C6.91666667,0 5.88541667,0.208333333 4.90625,0.625 C3.92708333,1.04166667 3.078125,1.609375 2.359375,2.328125 C1.640625,3.046875 1.06770833,3.89583333 0.640625,4.875 C0.213541667,5.85416667 0,6.89583333 0,8 C0,9.10416667 0.208333333,10.140625 0.625,11.109375 C1.04166667,12.078125 1.609375,12.9270833 2.328125,13.65625 C3.046875,14.3854167 3.890625,14.9583333 4.859375,15.375 C5.828125,15.7916667 6.875,16 8,16 Z M8,15 C7.04166667,15 6.13541667,14.8177083 5.28125,14.453125 C4.42708333,14.0885417 3.68229167,13.59375 3.046875,12.96875 C2.41145833,12.34375 1.91145833,11.6041667 1.546875,10.75 C1.18229167,9.89583333 1,8.97916667 1,8 C1,7.04166667 1.18229167,6.140625 1.546875,5.296875 C1.91145833,4.453125 2.41145833,3.71354167 3.046875,3.078125 C3.68229167,2.44270833 4.42708333,1.9375 5.28125,1.5625 C6.13541667,1.1875 7.04166667,1 8,1 C8.95833333,1 9.86458333,1.18229167 10.71875,1.546875 C11.5729167,1.91145833 12.3177083,2.41145833 12.953125,3.046875 C13.5885417,3.68229167 14.0885417,4.421875 14.453125,5.265625 C14.8177083,6.109375 15,7.02083333 15,8 C15,8.97916667 14.8177083,9.89583333 14.453125,10.75 C14.0885417,11.6041667 13.59375,12.34375 12.96875,12.96875 C12.34375,13.59375 11.6041667,14.0885417 10.75,14.453125 C9.89583333,14.8177083 8.97916667,15 8,15 Z M7.5625,12.03125 C7.625,12.03125 7.6875,12 7.75,11.9375 L7.75,11.9375 L12,5.34375 C12.0208333,5.30208333 12.03125,5.26041667 12.03125,5.21875 C12.03125,5.17708333 12.0104167,5.13541667 11.96875,5.09375 L11.96875,5.09375 L10.9375,4.03125 C10.8958333,3.98958333 10.8541667,3.96875 10.8125,3.96875 C10.7291667,3.96875 10.6666667,4.01041667 10.625,4.09375 L10.625,4.09375 L7.53125,9.15625 C7.51041667,9.21875 7.45833333,9.25 7.375,9.25 C7.3125,9.25 7.26041667,9.23958333 7.21875,9.21875 L7.21875,9.21875 L5.1875,7.6875 C5.14583333,7.64583333 5.10416667,7.625 5.0625,7.625 C5,7.625 4.94791667,7.65625 4.90625,7.71875 L4.90625,7.71875 L4.0625,8.90625 C4.02083333,8.96875 4,9.02083333 4,9.0625 C4,9.10416667 4.03125,9.14583333 4.09375,9.1875 L4.09375,9.1875 L7.4375,12 C7.45833333,12.0208333 7.5,12.03125 7.5625,12.03125 Z" id="" fill="#107F3E" fill-rule="nonzero"></path>
                </g>
            </g>
        </g>
    </g>
</svg>