<?xml version="1.0" encoding="UTF-8"?>
<svg width="16px" height="16px" viewBox="0 0 16 16" version="1.1" xmlns="http://www.w3.org/2000/svg" xmlns:xlink="http://www.w3.org/1999/xlink">
    <title>Icon/文件夹-关 2</title>
    <g id="图标" stroke="none" stroke-width="1" fill="none" fill-rule="evenodd">
        <g id="桌面端-HD" transform="translate(-152.000000, -174.000000)">
            <g id="编组" transform="translate(152.000000, 174.000000)">
                <rect id="矩形" x="0" y="0" width="16" height="16"></rect>
                <path d="M6.33333333,1.5 C6.48172325,1.5 6.62244706,1.5659115 6.71744397,1.6799078 L6.71744397,1.6799078 L8.235,3.5 L13.6666667,3.5 C14.2680529,3.5 14.7631478,3.95500249 14.8264876,4.53954371 L14.8264876,4.53954371 L14.8333333,4.66666667 L14.8333333,13.3333333 C14.8333333,13.9776757 14.311009,14.5 13.6666667,14.5 L13.6666667,14.5 L2.33333333,14.5 C1.68899866,14.5 1.16666667,13.9776734 1.16666667,13.3333333 L1.16666667,13.3333333 L1.16666667,2.66666667 C1.16666667,2.02233429 1.68900096,1.5 2.33333333,1.5 L2.33333333,1.5 Z M13.8326667,7.833 L2.16666667,7.833 L2.16666667,13.3333333 C2.16666667,13.4069757 2.2144199,13.469457 2.28065194,13.4915038 L2.33333333,13.5 L13.6666667,13.5 C13.7587243,13.5 13.8333333,13.425391 13.8333333,13.3333333 L13.8333333,13.3333333 L13.8326667,7.833 Z M6.099,2.5 L2.33333333,2.5 C2.24128571,2.5 2.16666667,2.57461904 2.16666667,2.66666667 L2.16666667,2.66666667 L2.16666667,6.833 L13.8326667,6.833 L13.8333333,4.66666667 C13.8333333,4.59302057 13.7855835,4.53054156 13.7193501,4.5084958 L13.6666667,4.5 L8,4.5 C7.85161008,4.5 7.71088627,4.4340885 7.61588936,4.3200922 L7.61588936,4.3200922 L6.099,2.5 Z" id="形状结合" fill="#0854A1" fill-rule="nonzero"></path>
            </g>
        </g>
    </g>
</svg>