<?xml version="1.0" encoding="UTF-8"?>
<svg width="16px" height="16px" viewBox="0 0 16 16" version="1.1" xmlns="http://www.w3.org/2000/svg" xmlns:xlink="http://www.w3.org/1999/xlink">
    <title>编组 8备份</title>
    <g id="树形控件" stroke="none" stroke-width="1" fill="none" fill-rule="evenodd">
        <g id="目录树" transform="translate(-211.000000, -406.000000)">
            <g id="编组-5" transform="translate(95.000000, 80.000000)">
                <g id="编组-7" transform="translate(0.000000, 56.000000)">
                    <g id="目录树-树" transform="translate(0.000000, 40.000000)">
                        <g id="编组-2" transform="translate(0.000000, 224.000000)">
                            <g id="编组" transform="translate(116.000000, 4.000000)">
                                <g id="编组-8备份" transform="translate(0.000000, 2.000000)">
                                    <rect id="Checkbox_BorderRegular备份" fill="#FFFFFF" opacity="0" x="0" y="0" width="16" height="16"></rect>
                                    <path d="M7.13793103,13 C7.1543514,13 7.19950739,12.9956597 7.27339901,12.9869792 C7.34729064,12.9782986 7.41707718,12.9045139 7.48275862,12.765625 L7.48275862,12.765625 L12.9507389,4.27604167 C12.9835796,4.20659722 13,4.13715278 13,4.06770833 C13,3.96354167 12.9589491,3.86805556 12.8768473,3.78125 L12.8768473,3.78125 L12.2364532,3.10416667 C12.1543514,3.03472222 12.0640394,3 11.9655172,3 C11.9490969,3 11.9039409,3.00434028 11.8300493,3.01302083 C11.7561576,3.02170139 11.6863711,3.08680556 11.6206897,3.20833333 L11.6206897,3.20833333 L7.31034483,9.69270833 C7.24466338,9.83159722 7.17487685,9.90538194 7.10098522,9.9140625 C7.0270936,9.92274306 6.99014778,9.92708333 6.99014778,9.92708333 C6.87520525,9.92708333 6.77668309,9.88368056 6.69458128,9.796875 L6.69458128,9.796875 L4.33004926,7.296875 C4.24794745,7.19270833 4.15763547,7.140625 4.0591133,7.140625 C3.96059113,7.140625 3.86206897,7.19270833 3.7635468,7.296875 L3.7635468,7.296875 L3.14778325,7.94791667 C3.06568144,8.03472222 3.02052545,8.10850694 3.01231527,8.16927083 C3.00410509,8.23003472 3,8.26041667 3,8.26041667 C3,8.34722222 3.0410509,8.43402778 3.12315271,8.52083333 L3.12315271,8.52083333 L6.84236453,12.8697917 C6.92446634,12.9565972 7.02298851,13 7.13793103,13 Z" id="" fill="#0854A0" fill-rule="nonzero"></path>
                                </g>
                            </g>
                        </g>
                    </g>
                </g>
            </g>
        </g>
    </g>
</svg>