<?xml version="1.0" encoding="UTF-8"?>
<svg width="16px" height="16px" viewBox="0 0 16 16" version="1.1" xmlns="http://www.w3.org/2000/svg" xmlns:xlink="http://www.w3.org/1999/xlink">
    <title>画板</title>
    <g id="反馈提示" stroke="none" stroke-width="1" fill="none" fill-rule="evenodd">
        <g transform="translate(-117.000000, -257.000000)" id="消息吐司">
            <g transform="translate(101.000000, 240.000000)">
                <g id="编组-7" transform="translate(16.000000, 13.000000)">
                    <g id="编组" transform="translate(0.000000, 3.000000)">
                        <rect id="矩形" x="0" y="0" width="16" height="16"></rect>
                        <path d="M13.71875,16.03125 C14.28125,16.03125 14.8020833,15.859375 15.28125,15.515625 C15.7604167,15.171875 16,14.6770833 16,14.03125 L16,14.03125 L16,13.84375 C15.9583333,13.46875 15.84375,13.0833333 15.65625,12.6875 L15.65625,12.6875 L9.90625,2.21875 C9.44791667,1.40625 8.83333333,1 8.0625,1 C7.27083333,1 6.63541667,1.40625 6.15625,2.21875 L6.15625,2.21875 L0.375,12.6875 C0.270833333,12.9166667 0.182291667,13.125 0.109375,13.3125 C0.0364583333,13.5 0,13.6875 0,13.875 L0,13.875 L0,14 C0,14.3125 0.0677083333,14.5989583 0.203125,14.859375 C0.338541667,15.1197917 0.515625,15.3333333 0.734375,15.5 C0.953125,15.6666667 1.19791667,15.796875 1.46875,15.890625 C1.73958333,15.984375 2.01041667,16.03125 2.28125,16.03125 L2.28125,16.03125 L13.71875,16.03125 Z M13.625,15.03125 L2.40625,15.03125 C1.53125,15.03125 1.09375,14.6979167 1.09375,14.03125 C1.09375,13.71875 1.16666667,13.4270833 1.3125,13.15625 L1.3125,13.15625 L7,2.71875 C7.125,2.46875 7.28125,2.28645833 7.46875,2.171875 C7.65625,2.05729167 7.84375,2 8.03125,2 C8.21875,2 8.41145833,2.05729167 8.609375,2.171875 C8.80729167,2.28645833 8.96875,2.46875 9.09375,2.71875 L9.09375,2.71875 L14.71875,13.15625 C14.8854167,13.53125 14.96875,13.8229167 14.96875,14.03125 C14.96875,14.6979167 14.5208333,15.03125 13.625,15.03125 L13.625,15.03125 Z M7.96875,11 C8.42708333,11 8.67708333,10.78125 8.71875,10.34375 L8.71875,10.34375 L8.78125,9.1875 L9.0625,6.5625 C9.0625,6.20833333 8.953125,5.94791667 8.734375,5.78125 C8.515625,5.61458333 8.27083333,5.53125 8,5.53125 C7.72916667,5.53125 7.484375,5.61458333 7.265625,5.78125 C7.046875,5.94791667 6.9375,6.20833333 6.9375,6.5625 C6.9375,6.5625 6.94791667,6.61458333 6.96875,6.71875 C6.98958333,6.82291667 7.015625,7.01041667 7.046875,7.28125 C7.078125,7.55208333 7.109375,7.93229167 7.140625,8.421875 C7.171875,8.91145833 7.20833333,9.55208333 7.25,10.34375 C7.25,10.5729167 7.328125,10.7395833 7.484375,10.84375 C7.640625,10.9479167 7.80208333,11 7.96875,11 Z M8,13.96875 C8.29166667,13.96875 8.53125,13.875 8.71875,13.6875 C8.90625,13.5 9,13.2604167 9,12.96875 C9,12.6770833 8.90625,12.4375 8.71875,12.25 C8.53125,12.0625 8.29166667,11.96875 8,11.96875 C7.70833333,11.96875 7.46875,12.0625 7.28125,12.25 C7.09375,12.4375 7,12.6770833 7,12.96875 C7,13.2604167 7.09375,13.5 7.28125,13.6875 C7.46875,13.875 7.70833333,13.96875 8,13.96875 Z" id="" fill="#E9730C" fill-rule="nonzero"></path>
                    </g>
                </g>
            </g>
        </g>
    </g>
</svg>