<?xml version="1.0" encoding="UTF-8"?>
<svg width="16px" height="16px" viewBox="0 0 16 16" version="1.1" xmlns="http://www.w3.org/2000/svg" xmlns:xlink="http://www.w3.org/1999/xlink">
    <title>Icon/确认 2</title>
    <g id="反馈提示" stroke="none" stroke-width="1" fill="none" fill-rule="evenodd">
        <g id="弹框" transform="translate(-128.000000, -143.000000)">
            <g id="UI-ELEMENTS/MESSAGE-BOX/COZY/Confirmation" transform="translate(112.000000, 130.000000)">
                <g id="Icon/确认" transform="translate(16.000000, 13.000000)">
                    <rect id="矩形" x="0" y="0" width="16" height="16"></rect>
                    <path d="M8,16 C9.10416667,16 10.1458333,15.7916667 11.125,15.375 C12.1041667,14.9583333 12.953125,14.3854167 13.671875,13.65625 C14.390625,12.9270833 14.9583333,12.078125 15.375,11.109375 C15.7916667,10.140625 16,9.10416667 16,8 C16,6.89583333 15.7916667,5.85416667 15.375,4.875 C14.9583333,3.89583333 14.390625,3.046875 13.671875,2.328125 C12.953125,1.609375 12.1041667,1.04166667 11.125,0.625 C10.1458333,0.208333333 9.10416667,0 8,0 C6.89583333,0 5.859375,0.208333333 4.890625,0.625 C3.921875,1.04166667 3.07291667,1.609375 2.34375,2.328125 C1.61458333,3.046875 1.04166667,3.89583333 0.625,4.875 C0.208333333,5.85416667 0,6.89583333 0,8 C0,9.10416667 0.208333333,10.140625 0.625,11.109375 C1.04166667,12.078125 1.61458333,12.9270833 2.34375,13.65625 C3.07291667,14.3854167 3.921875,14.9583333 4.890625,15.375 C5.859375,15.7916667 6.89583333,16 8,16 Z M8,15 C7.04166667,15 6.13541667,14.8177083 5.28125,14.453125 C4.42708333,14.0885417 3.68229167,13.5885417 3.046875,12.953125 C2.41145833,12.3177083 1.91145833,11.5729167 1.546875,10.71875 C1.18229167,9.86458333 1,8.95833333 1,8 C1,7.04166667 1.18229167,6.13541667 1.546875,5.28125 C1.91145833,4.42708333 2.41145833,3.68229167 3.046875,3.046875 C3.68229167,2.41145833 4.42708333,1.91145833 5.28125,1.546875 C6.13541667,1.18229167 7.04166667,1 8,1 C8.95833333,1 9.86458333,1.18229167 10.71875,1.546875 C11.5729167,1.91145833 12.3177083,2.41145833 12.953125,3.046875 C13.5885417,3.68229167 14.0885417,4.42708333 14.453125,5.28125 C14.8177083,6.13541667 15,7.04166667 15,8 C15,8.95833333 14.8177083,9.86458333 14.453125,10.71875 C14.0885417,11.5729167 13.5885417,12.3177083 12.953125,12.953125 C12.3177083,13.5885417 11.5729167,14.0885417 10.71875,14.453125 C9.86458333,14.8177083 8.95833333,15 8,15 Z M8.625,10 C8.60416667,9.8125 8.59375,9.65625 8.59375,9.53125 C8.59375,9.38541667 8.609375,9.22916667 8.640625,9.0625 C8.671875,8.89583333 8.734375,8.734375 8.828125,8.578125 C8.921875,8.421875 9.04166667,8.28125 9.1875,8.15625 C9.33333333,8.03125 9.48958333,7.875 9.65625,7.6875 C9.90625,7.39583333 10.1666667,7.09895833 10.4375,6.796875 C10.7083333,6.49479167 10.84375,6.11458333 10.84375,5.65625 C10.84375,4.94791667 10.578125,4.36979167 10.046875,3.921875 C9.515625,3.47395833 8.80208333,3.25 7.90625,3.25 C7.42708333,3.25 6.98958333,3.328125 6.59375,3.484375 C6.19791667,3.640625 5.859375,3.84375 5.578125,4.09375 C5.296875,4.34375 5.078125,4.625 4.921875,4.9375 C4.765625,5.25 4.6875,5.55208333 4.6875,5.84375 L4.6875,5.84375 L6.21875,5.84375 C6.30208333,5.36458333 6.5,4.97395833 6.8125,4.671875 C7.125,4.36979167 7.52083333,4.21875 8,4.21875 C8.47916667,4.21875 8.86979167,4.36458333 9.171875,4.65625 C9.47395833,4.94791667 9.625,5.25 9.625,5.5625 C9.625,5.77083333 9.55208333,5.98958333 9.40625,6.21875 C9.26041667,6.44791667 9.11458333,6.61458333 8.96875,6.71875 L8.96875,6.71875 L8.3125,7.25 C8.02083333,7.5 7.79166667,7.71875 7.625,7.90625 C7.45833333,8.09375 7.33333333,8.28645833 7.25,8.484375 C7.16666667,8.68229167 7.11979167,8.90104167 7.109375,9.140625 C7.09895833,9.38020833 7.09375,9.66666667 7.09375,10 L7.09375,10 L8.625,10 Z M8,13 C8.29166667,13 8.53125,12.9010417 8.71875,12.703125 C8.90625,12.5052083 9,12.2708333 9,12 C9,11.7083333 8.90625,11.46875 8.71875,11.28125 C8.53125,11.09375 8.29166667,11 8,11 C7.72916667,11 7.49479167,11.09375 7.296875,11.28125 C7.09895833,11.46875 7,11.7083333 7,12 C7,12.2708333 7.09895833,12.5052083 7.296875,12.703125 C7.49479167,12.9010417 7.72916667,13 8,13 Z" id="" fill="#32363A" fill-rule="nonzero"></path>
                </g>
            </g>
        </g>
    </g>
</svg>