<?xml version="1.0" encoding="UTF-8"?>
<svg width="16px" height="16px" viewBox="0 0 16 16" version="1.1" xmlns="http://www.w3.org/2000/svg" xmlns:xlink="http://www.w3.org/1999/xlink">
    <title> 3</title>
    <g id="反馈提示" stroke="none" stroke-width="1" fill="none" fill-rule="evenodd">
        <g transform="translate(-531.000000, -1755.000000)" id="信息提示">
            <g transform="translate(15.000000, 1743.000000)">
                <g id="编组-7" transform="translate(516.000000, 10.000000)">
                    <g id="-2" transform="translate(0.000000, 2.000000)">
                        <rect id="矩形" x="0" y="0" width="16" height="16"></rect>
                        <path d="M8,16 C9.10416667,16 10.1458333,15.7916667 11.125,15.375 C12.1041667,14.9583333 12.953125,14.390625 13.671875,13.671875 C14.390625,12.953125 14.9583333,12.1041667 15.375,11.125 C15.7916667,10.1458333 16,9.10416667 16,8 C16,6.89583333 15.7916667,5.859375 15.375,4.890625 C14.9583333,3.921875 14.390625,3.07291667 13.671875,2.34375 C12.953125,1.61458333 12.1041667,1.04166667 11.125,0.625 C10.1458333,0.208333333 9.10416667,0 8,0 C6.89583333,0 5.859375,0.208333333 4.890625,0.625 C3.921875,1.04166667 3.07291667,1.61458333 2.34375,2.34375 C1.61458333,3.07291667 1.04166667,3.921875 0.625,4.890625 C0.208333333,5.859375 0,6.89583333 0,8 C0,9.10416667 0.208333333,10.1458333 0.625,11.125 C1.04166667,12.1041667 1.61458333,12.953125 2.34375,13.671875 C3.07291667,14.390625 3.921875,14.9583333 4.890625,15.375 C5.859375,15.7916667 6.89583333,16 8,16 Z M8,15 C7.04166667,15 6.13541667,14.8177083 5.28125,14.453125 C4.42708333,14.0885417 3.68229167,13.5885417 3.046875,12.953125 C2.41145833,12.3177083 1.91145833,11.578125 1.546875,10.734375 C1.18229167,9.890625 1,8.97916667 1,8 C1,7.04166667 1.18229167,6.13541667 1.546875,5.28125 C1.91145833,4.42708333 2.41145833,3.68229167 3.046875,3.046875 C3.68229167,2.41145833 4.42708333,1.91145833 5.28125,1.546875 C6.13541667,1.18229167 7.04166667,1 8,1 C8.95833333,1 9.86458333,1.18229167 10.71875,1.546875 C11.5729167,1.91145833 12.3177083,2.41145833 12.953125,3.046875 C13.5885417,3.68229167 14.0885417,4.42708333 14.453125,5.28125 C14.8177083,6.13541667 15,7.04166667 15,8 C15,8.97916667 14.8177083,9.890625 14.453125,10.734375 C14.0885417,11.578125 13.5885417,12.3177083 12.953125,12.953125 C12.3177083,13.5885417 11.5729167,14.0885417 10.71875,14.453125 C9.86458333,14.8177083 8.95833333,15 8,15 Z M11.15625,12.03125 C11.1770833,12.03125 11.2708333,11.9895833 11.4375,11.90625 L11.4375,11.90625 L11.9375,11.375 C12.0416667,11.2708333 12.09375,11.1770833 12.09375,11.09375 C12.09375,11.0104167 12.0416667,10.9270833 11.9375,10.84375 L11.9375,10.84375 L9.15625,8.0625 C9.11458333,8 9.09375,7.94791667 9.09375,7.90625 C9.09375,7.86458333 9.125,7.82291667 9.1875,7.78125 L9.1875,7.78125 L11.9375,5 C12.0416667,4.89583333 12.09375,4.80208333 12.09375,4.71875 C12.09375,4.63541667 12.0416667,4.55208333 11.9375,4.46875 L11.9375,4.46875 L11.4375,3.9375 C11.3541667,3.85416667 11.2604167,3.8125 11.15625,3.8125 C11.0520833,3.8125 10.9583333,3.85416667 10.875,3.9375 L10.875,3.9375 L8.09375,6.71875 C8.05208333,6.76041667 8.01041667,6.78125 7.96875,6.78125 C7.90625,6.78125 7.85416667,6.76041667 7.8125,6.71875 L7.8125,6.71875 L5.0625,3.9375 C4.97916667,3.85416667 4.88541667,3.8125 4.78125,3.8125 C4.67708333,3.8125 4.58333333,3.85416667 4.5,3.9375 L4.5,3.9375 L4,4.46875 C3.91666667,4.55208333 3.875,4.63541667 3.875,4.71875 C3.875,4.80208333 3.91666667,4.89583333 4,5 L4,5 L6.75,7.78125 C6.8125,7.82291667 6.84375,7.86458333 6.84375,7.90625 C6.84375,7.94791667 6.8125,8 6.75,8.0625 L6.75,8.0625 L4,10.84375 C3.91666667,10.9270833 3.875,11.0104167 3.875,11.09375 C3.875,11.1770833 3.91666667,11.2708333 4,11.375 L4,11.375 L4.5,11.90625 C4.66666667,11.9895833 4.76041667,12.03125 4.78125,12.03125 C4.84375,12.03125 4.9375,11.9895833 5.0625,11.90625 L5.0625,11.90625 L7.8125,9.125 C7.83333333,9.08333333 7.88541667,9.0625 7.96875,9.0625 C8.03125,9.0625 8.07291667,9.08333333 8.09375,9.125 L8.09375,9.125 L10.875,11.90625 C11.0416667,11.9895833 11.1354167,12.03125 11.15625,12.03125 Z" id="" fill="#E00000" fill-rule="nonzero"></path>
                    </g>
                </g>
            </g>
        </g>
    </g>
</svg>