<?xml version="1.0" encoding="UTF-8"?>
<svg width="20px" height="20px" viewBox="0 0 20 20" version="1.1" xmlns="http://www.w3.org/2000/svg" xmlns:xlink="http://www.w3.org/1999/xlink">
    <title>Icon/添加 2备份 2</title>
    <g id="tab" stroke="none" stroke-width="1" fill="none" fill-rule="evenodd">
        <g id="Tab" transform="translate(-613.000000, -220.000000)" fill="#FFFFFF" fill-rule="nonzero">
            <g id="Icon/添加-2备份" transform="translate(613.000000, 220.000000)">
                <g id="添加_add-one" transform="translate(2.000000, 2.000000)">
                    <rect id="矩形" fill-opacity="0.01" x="0" y="0" width="16" height="16"></rect>
                    <path d="M8,0.833333333 C11.9580424,0.833333333 15.1666667,4.04195763 15.1666667,8 C15.1666667,11.9580424 11.9580424,15.1666667 8,15.1666667 C4.04195763,15.1666667 0.833333333,11.9580424 0.833333333,8 C0.833333333,4.04195763 4.04195763,0.833333333 8,0.833333333 Z M8,1.83333333 C4.59424237,1.83333333 1.83333333,4.59424237 1.83333333,8 C1.83333333,11.4057576 4.59424237,14.1666667 8,14.1666667 C11.4057576,14.1666667 14.1666667,11.4057576 14.1666667,8 C14.1666667,4.59424237 11.4057576,1.83333333 8,1.83333333 Z M8.5,5.33333333 L8.49933333,7.49933333 L10.6666667,7.5 L10.6666667,8.5 L8.49933333,8.49933333 L8.5,10.6666667 L7.5,10.6666667 L7.49933333,8.49933333 L5.33333333,8.5 L5.33333333,7.5 L7.49933333,7.49933333 L7.5,5.33333333 L8.5,5.33333333 Z" id="形状结合"></path>
                </g>
            </g>
        </g>
    </g>
</svg>