<?xml version="1.0" encoding="UTF-8"?>
<svg width="16px" height="16px" viewBox="0 0 16 16" version="1.1" xmlns="http://www.w3.org/2000/svg" xmlns:xlink="http://www.w3.org/1999/xlink">
    <title>备份</title>
    <g id="反馈提示" stroke="none" stroke-width="1" fill="none" fill-rule="evenodd">
        <g transform="translate(-117.000000, -1481.000000)" id="告警提示备份-3">
            <g transform="translate(101.000000, 1466.000000)">
                <g id="编组-4" transform="translate(16.000000, 15.000000)">
                    <rect id="矩形" x="0" y="0" width="16" height="16"></rect>
                    <path d="M8,16 C9.10416667,16 10.1458333,15.7916667 11.125,15.375 C12.1041667,14.9583333 12.953125,14.390625 13.671875,13.671875 C14.390625,12.953125 14.9583333,12.109375 15.375,11.140625 C15.7916667,10.171875 16,9.125 16,8 C16,6.89583333 15.7916667,5.859375 15.375,4.890625 C14.9583333,3.921875 14.390625,3.07291667 13.671875,2.34375 C12.953125,1.61458333 12.109375,1.04166667 11.140625,0.625 C10.171875,0.208333333 9.125,0 8,0 C6.91666667,0 5.88541667,0.208333333 4.90625,0.625 C3.92708333,1.04166667 3.078125,1.609375 2.359375,2.328125 C1.640625,3.046875 1.06770833,3.89583333 0.640625,4.875 C0.213541667,5.85416667 0,6.89583333 0,8 C0,9.10416667 0.208333333,10.140625 0.625,11.109375 C1.04166667,12.078125 1.609375,12.9270833 2.328125,13.65625 C3.046875,14.3854167 3.890625,14.9583333 4.859375,15.375 C5.828125,15.7916667 6.875,16 8,16 Z M8,15 C7.04166667,15 6.13541667,14.8177083 5.28125,14.453125 C4.42708333,14.0885417 3.68229167,13.59375 3.046875,12.96875 C2.41145833,12.34375 1.91145833,11.6041667 1.546875,10.75 C1.18229167,9.89583333 1,8.97916667 1,8 C1,7.04166667 1.18229167,6.140625 1.546875,5.296875 C1.91145833,4.453125 2.41145833,3.71354167 3.046875,3.078125 C3.68229167,2.44270833 4.42708333,1.9375 5.28125,1.5625 C6.13541667,1.1875 7.04166667,1 8,1 C8.97916667,1 9.890625,1.18229167 10.734375,1.546875 C11.578125,1.91145833 12.3177083,2.41145833 12.953125,3.046875 C13.5885417,3.68229167 14.0885417,4.421875 14.453125,5.265625 C14.8177083,6.109375 15,7.02083333 15,8 C15,8.95833333 14.8177083,9.86458333 14.453125,10.71875 C14.0885417,11.5729167 13.59375,12.3177083 12.96875,12.953125 C12.34375,13.5885417 11.6041667,14.0885417 10.75,14.453125 C9.89583333,14.8177083 8.97916667,15 8,15 Z M8,5.5 C8.27083333,5.5 8.5,5.40625 8.6875,5.21875 C8.89583333,5.03125 9,4.80208333 9,4.53125 C9,4.21875 8.89583333,3.96875 8.6875,3.78125 C8.5,3.59375 8.27083333,3.5 8,3.5 C7.6875,3.5 7.44270833,3.59895833 7.265625,3.796875 C7.08854167,3.99479167 7,4.23958333 7,4.53125 C7,4.82291667 7.09375,5.05729167 7.28125,5.234375 C7.46875,5.41145833 7.70833333,5.5 8,5.5 Z M10,12.53125 L10,11.5 L9,11.5 L9,6.53125 L6.03125,6.53125 L6.03125,7.5 L7.03125,7.5 L7.03125,11.5 L6,11.5 L6,12.53125 L10,12.53125 Z" id="" fill="#0A6ED1" fill-rule="nonzero"></path>
                </g>
            </g>
        </g>
    </g>
</svg>