<?xml version="1.0" encoding="UTF-8"?>
<svg width="16px" height="16px" viewBox="0 0 16 16" version="1.1" xmlns="http://www.w3.org/2000/svg" xmlns:xlink="http://www.w3.org/1999/xlink">
    <title>Icon/文件夹-开 2</title>
    <g id="图标" stroke="none" stroke-width="1" fill="none" fill-rule="evenodd">
        <g id="桌面端-HD" transform="translate(-182.000000, -174.000000)" fill-rule="nonzero">
            <g id="编组" transform="translate(182.000000, 174.000000)">
                <rect id="矩形" x="0" y="0" width="16" height="16"></rect>
                <path d="M6.33333333,1.83333333 C6.48172325,1.83333333 6.62244706,1.89924484 6.71744397,2.01324113 L6.71744397,2.01324113 L8.234,3.833 L12.5,3.83333333 C13.1013862,3.83333333 13.5964811,4.28833583 13.659821,4.87287704 L13.659821,4.87287704 L13.6666667,5 L13.6662931,6.49933333 L14.6666667,6.5 C14.953506,6.5 15.1751577,6.73856372 15.1665967,7.01439271 L15.156957,7.09805807 L13.8236237,13.7647247 C13.7768813,13.9984368 13.5716738,14.1666667 13.3333333,14.1666667 L13.3333333,14.1666667 L1.33333333,14.1666667 C1.33093984,14.1666667 1.32855102,14.1666501 1.32616694,14.1666171 C1.3083446,14.1664582 1.28998689,14.1651218 1.27174414,14.162859 C1.26020286,14.1615315 1.24962752,14.159878 1.2391796,14.1579019 C1.22034466,14.1543351 1.20085526,14.149608 1.18169716,14.1438051 C1.17563663,14.1414976 1.1701042,14.1396298 1.16461916,14.1376694 C1.0075342,14.0849761 0.875620942,13.9577413 0.841760812,13.7656356 L0.841760812,13.7656356 L0.838191002,13.7384308 C0.835479497,13.7196988 0.833827804,13.7006839 0.833293077,13.6814586 L0.833333333,13.6666667 L0.833333333,3 C0.833333333,2.35566763 1.35566763,1.83333333 2,1.83333333 L2,1.83333333 Z M14.056,7.499 L13.1772931,7.49833333 L13.1666667,7.5 L3.39,7.499 L1.97329308,13.1653333 L12.923,13.166 L14.056,7.499 Z M6.099,2.833 L2,2.83333333 C1.90795237,2.83333333 1.83333333,2.90795237 1.83333333,3 L1.83333333,3 L1.83229308,9.45333333 L2.45137538,6.88302626 C2.49867909,6.68643941 2.65846721,6.54062507 2.85248297,6.50724315 L2.9375,6.5 L3,6.5 L12.666,6.499 L12.6666667,5 C12.6666667,4.9263539 12.6189169,4.86387489 12.5526835,4.84182913 L12.5526835,4.84182913 L12.5,4.83333333 L8,4.83333333 C7.85161008,4.83333333 7.71088627,4.76742183 7.61588936,4.65342553 L7.61588936,4.65342553 L6.099,2.833 Z" id="形状结合" fill="#0854A1"></path>
            </g>
        </g>
    </g>
</svg>